<?xml version="1.0" standalone="no"?>
<!DOCTYPE svg PUBLIC "-//W3C//DTD SVG 20010904//EN" "http://www.w3.org/TR/2001/REC-SVG-20010904/DTD/svg10.dtd">
<svg version="1.0" xmlns="http://www.w3.org/2000/svg" viewBox="0 0 48.000000 48.000000" preserveAspectRatio="xMidYMid meet">
  <g transform="translate(0.000000,48.000000) scale(0.100000,-0.100000)" stroke="none">
    <path d="M105 270 c-64 -127 -105 -222 -105 -240 0 -27 3 -30 30 
      -30 30 0 34 6 116 173 46 94 89 173 94 175 5 2 48 -76 94 
      -172 82 -171 85 -176 115 -176 27 0 31 3 31 28 0 15 -47 123 
      -105 240 -101 206 -105 212 -135 212 -29 0 -33-6 -135 -210z" />
  </g>
</svg>