<?xml version="1.0" encoding="UTF-8"?>
<svg width="24" height="24" version="1.1" viewBox="0 0 24 24" xmlns="http://www.w3.org/2000/svg">
 <path d="m573.21 280.02c-0.007812-4.7852-2.4492-9.2383-6.4805-11.812l-43.613-27.715 27.289-43.887c2.5273-4.0742 2.7969-9.1562 0.71484-13.477-2.0859-4.3164-6.2344-7.2695-10.996-7.8242l-51.297-5.9727 5.5508-51.363v-0.003906c0.50781-4.7617-1.4531-9.457-5.1953-12.441-3.7461-2.9883-8.7578-3.8516-13.289-2.2969l-48.836 16.816-17.336-48.711c-1.6055-4.5156-5.4102-7.8984-10.082-8.9609s-9.5664 0.33594-12.969 3.7109l-36.668 36.379-36.668-36.395c-3.4023-3.375-8.2969-4.7734-12.969-3.707-4.6719 1.0625-8.4766 4.4414-10.082 8.957l-17.309 48.715-48.863-16.816c-4.5273-1.6016-9.5625-0.73047-13.289 2.2969-3.75 2.9805-5.7109 7.6758-5.1953 12.441l5.5508 51.363-51.297 5.9766c-4.7617 0.55469-8.9102 3.5078-10.992 7.8242-2.0859 4.3164-1.8164 9.4023 0.71094 13.477l27.289 43.887-43.613 27.727c-4.0352 2.5703-6.4805 7.0273-6.4805 11.812s2.4453 9.2383 6.4805 11.812l43.613 27.711-27.289 43.887c-2.5273 4.0742-2.7969 9.1602-0.71094 13.477 2.082 4.3164 6.2305 7.2695 10.992 7.8242l51.297 5.9766-5.5508 51.363c-0.50781 4.7656 1.4531 9.457 5.1953 12.445 3.7461 2.9844 8.7578 3.8516 13.289 2.293l48.836-16.816 17.336 48.715c1.6055 4.5156 5.4102 7.8945 10.082 8.957 4.6719 1.0664 9.5664-0.33203 12.969-3.707l36.668-36.383 36.668 36.395c2.6289 2.6016 6.1758 4.0625 9.8711 4.0625 1.0508 0 2.0938-0.11719 3.1172-0.35547 4.668-1.0586 8.4688-4.4414 10.062-8.957l17.309-48.715 48.863 16.816v0.003906c4.5312 1.5547 9.543 0.6875 13.289-2.2969 3.7422-2.9883 5.7031-7.6797 5.1953-12.441l-5.5508-51.367 51.297-5.9766v0.003907c4.7617-0.55469 8.9102-3.5078 10.992-7.8242 2.0859-4.3203 1.8164-9.4023-0.71094-13.477l-27.289-43.887 43.613-27.727c4.0312-2.5781 6.4727-7.0273 6.4805-11.812zm-76.836 23.352c-6.4766 4.1211-8.4258 12.688-4.375 19.207l22.969 36.898-43.176 5.0312v0.003906c-7.6328 0.89063-13.125 7.7656-12.305 15.406l4.6758 43.258-41.125-14.148c-7.2578-2.5156-15.188 1.3008-17.746 8.5469l-14.547 40.977-30.871-30.641c-5.4688-5.4141-14.273-5.4141-19.742 0l-30.871 30.637-14.574-40.988c-2.5469-7.2539-10.488-11.078-17.746-8.5469l-41.098 14.148 4.6758-43.258v0.003906c0.82031-7.6406-4.6719-14.516-12.305-15.41l-43.176-5.0312 22.969-36.902v0.003906c4.0508-6.5195 2.1016-15.086-4.375-19.211l-36.723-23.34 36.723-23.352v0.003906c6.4766-4.1211 8.4258-12.688 4.375-19.207l-22.969-36.902 43.176-5.0312c7.6328-0.89453 13.125-7.7656 12.305-15.41l-4.6758-43.258 41.125 14.152c3.4844 1.2344 7.3203 1.0234 10.652-0.57812 3.332-1.6055 5.8828-4.4727 7.0938-7.9688l14.547-40.977 30.871 30.641c5.4688 5.4141 14.273 5.4141 19.742 0l30.871-30.641 14.574 40.988v0.003906c2.543 7.2578 10.488 11.082 17.746 8.543l41.098-14.148-4.6758 43.258c-0.82031 7.6406 4.6719 14.516 12.305 15.406l43.176 5.0312-22.969 36.902c-4.0508 6.5195-2.1016 15.086 4.375 19.207l36.723 23.336z"/>
</svg>
